<?xml version="1.0" encoding="UTF-8"?>
<svg id="loading" xmlns="http://www.w3.org/2000/svg" viewBox="0 0 73 73.08">
  <defs>
    <style>
      .cls-1 {
        fill: #fff;
      }

      .cls-2 {
        fill: #262262;
      }
    </style>
  </defs>
  <rect class="cls-2" x="8.42" y="24.95" width="6.16" height="23" rx="3.01" ry="3.01" transform="translate(-24.95 47.95) rotate(-90)"/>
  <rect class="cls-2" x="33.34" y="50.07" width="6.16" height="23" rx="3.01" ry="3.01"/>
  <rect class="cls-2" x="33.34" y="0" width="6.16" height="23" rx="3.01" ry="3.01"/>
  <rect class="cls-2" x="51.14" y="42.47" width="6.16" height="23" rx="3.01" ry="3.01" transform="translate(-22.28 54.15) rotate(-45)"/>
  <rect class="cls-2" x="15.84" y="7.04" width="6.16" height="23" rx="3.01" ry="3.01" transform="translate(-7.57 18.81) rotate(-45)"/>
  <rect class="cls-2" x="50.59" y="7.04" width="6.16" height="23" rx="3.01" ry="3.01" transform="translate(28.83 -32.52) rotate(45)"/>
  <rect class="cls-2" x="58.42" y="25.07" width="6.16" height="23" rx="3.01" ry="3.01" transform="translate(98.07 -24.93) rotate(90)"/>
  <rect class="cls-2" x="15.3" y="42.33" width="6.16" height="23" rx="3.01" ry="3.01" transform="translate(43.44 2.77) rotate(45)"/>
  <circle class="cls-1" cx="36.42" cy="36.45" r="6.2"/>
</svg>