<?xml version="1.0" encoding="utf-8"?>
<!-- Generator: Adobe Illustrator 27.5.0, SVG Export Plug-In . SVG Version: 6.00 Build 0)  -->
<svg version="1.1" id="planet" xmlns="http://www.w3.org/2000/svg" xmlns:xlink="http://www.w3.org/1999/xlink" x="0px" y="0px"
	viewBox="0 0 100 100" style="enable-background:new 0 0 100 100;" xml:space="preserve">
<defs>
<style type="text/css">
	.st0{fill:#FBB040;stroke:#000000;stroke-width:2;stroke-miterlimit:10;}
	.st1{fill:none;stroke:#000000;stroke-width:2.8973;stroke-miterlimit:10;}

#planet {
  transition: all 0.5s ease;
  transform-origin: center;
}

#planet {
  transition: all 0.5s linear;
}

#planet:hover {
  fill: black;
  transform: rotate(360deg);
}

</style>
<script>
  const planet = document.querySelector("#planet");

  function logId() {
    console.log(this.id);
  }

  planet.addEventListener("click", logId);
</script>
</defs>
<g id="planet">
	<circle id="circle" class="st0" cx="47.7" cy="52.5" r="31"/>
	<path id="arc" class="st1" d="M39.6,22.6c-16-9.1-21-8.8-22.8-7c-4.7,4.9,9.9,27.8,24.7,43c11.5,11.8,23.4,19.2,31.8,23.7
		c5.2,2.4,10,2.1,11.9,0.2c1.6-1.6,1.9-3.5,1.9-3.5c0.1-0.8,0.1-1.3,0.1-2c-0.1-1-0.3-2.3-1.1-4.2c-0.8-2.1-1.8-3.6-2.1-4.1
		c-2.1-3.4-4.6-6.4-6.3-8.5"/>
	<g id="holes">
		<circle class="st0" cx="47.7" cy="38.1" r="4.7"/>
		<circle class="st0" cx="57.8" cy="59.7" r="3.4"/>
		<circle class="st0" cx="25.7" cy="55.4" r="5"/>
	</g>
</g>
</svg>
